<svg xmlns="http://www.w3.org/2000/svg" width="124.45" height="32.74" viewBox="0 0 124.45 32.74"><defs><style>.cls-1{font-size:13.93px;font-family:AdobeClean-Bold, Adobe Clean;font-weight:700;}.cls-1,.cls-5{fill:#818181;}.cls-2{letter-spacing:0em;}.cls-3{letter-spacing:0.01em;}.cls-4{letter-spacing:0.01em;}</style></defs><g id="Layer_2" data-name="Layer 2"><g id="Layer_1-2" data-name="Layer 1"><text id="alala" class="cls-1" transform="translate(9.09 19.85)">App<tspan class="cls-2" x="23.62" y="0">l</tspan><tspan x="27.27" y="0">i</tspan><tspan class="cls-3" x="30.73" y="0">e</tspan><tspan x="37.9" y="0">s to v7 on</tspan><tspan class="cls-4" x="93.37" y="0">l</tspan><tspan x="97.17" y="0">y</tspan></text><path class="cls-5" d="M30.31,32c.23.06.28.11.25.26a2.33,2.33,0,0,1-.09.29l-.57.16c0-.1,0-.18,0-.23a1,1,0,0,0-.23-.18l-.42.19.14.18a4.3,4.3,0,0,1-.95,0c.17-.22.41-.12.69-.1l-.26-.34a.72.72,0,0,1-.25.07.69.69,0,0,1-.25-.06l-.06.25c-.11-.08-.17-.22-.38-.14v.31H25.73c-.07-.09-.11-.2-.21-.25a.91.91,0,0,0-.32,0c0,.16,0,.16.23.18-.16.07-.16.07-.61.07h-.67l-.63,0-.12-.4a.31.31,0,0,0-.07.44H21.65a1.84,1.84,0,0,1-.47-.06c-.23-.06-.46-.15-.74-.24l-.13.09a.47.47,0,0,1,.35.22h-4c-1.18,0-2.37,0-3.55,0a19.42,19.42,0,0,1-4.18-.38,12.17,12.17,0,0,1-6.35-3.21A7.27,7.27,0,0,1,.74,26.62,9.27,9.27,0,0,1,0,23.12c0-2.4,0-4.81,0-7.21,0-1.74,0-3.47,0-5.21A2.23,2.23,0,0,1,.28,9.64a1.53,1.53,0,0,0,.1-.9L.06,8.69a.11.11,0,0,1,0-.08A8.51,8.51,0,0,1,1.89,4.33a.67.67,0,0,1,0,.54c0,.07-.07.16.06.18a.3.3,0,0,0,.2-.13,3.1,3.1,0,0,0,.24-.64c0-.1,0-.21-.08-.34A11.12,11.12,0,0,1,6.62,1c0,.16-.06.24,0,.31a.28.28,0,0,0,.16.16c.13,0,.17-.06.17-.14a1.31,1.31,0,0,0,0-.28c0-.14.1-.2.32-.21l.1.44h.07A3.72,3.72,0,0,0,7.58,1a.65.65,0,0,1,.59-.4l.5-.1c0,.12.05.23.07.34s.06.27-.19.35-.05.22-.06.36a2.63,2.63,0,0,1,.31-.24A.77.77,0,0,0,9.09.9,4.63,4.63,0,0,1,9.38.37,8.06,8.06,0,0,1,11.62.08l0,.05c0,.09-.1.23.12.24s.11-.13.14-.21A.93.93,0,0,1,12,.06h4c.16.15,0,.4.32.49l0-.48.28,0h1.93c.17,0,.36,0,.42.21A1.18,1.18,0,0,1,19.79,0H61.88l4,0h.91a.7.7,0,0,0,.16.2s.14,0,.22,0,0,.27.36.22c-.08-.09-.17-.15-.18-.21s.07-.15.12-.25c.46,0,1,0,1.45,0a1.17,1.17,0,0,1,.21.08c.2,0,.37-.08.54-.1s.39,0,.59,0a.68.68,0,0,1,.48.11c.09.08.25.07.39.08l0-.06-.21-.1.28,0,.06.23.22-.13,0,.18-.32.13.44.11c0,.3-.39.5-.25.82.35,0,.21-.42.59-.4l-.13-.2.72-.05s0-.09,0-.15a.19.19,0,0,0-.26,0c-.11.09-.22.06-.36,0l.2-.48a.4.4,0,0,1,.51.19l.1-.27.07.06.07,0s0,.1,0,.12A.34.34,0,0,1,73,.59,2.2,2.2,0,0,0,73,1c.27.18.46,0,.68-.06L73.21.47c.22-.18.47-.1.7-.12a5.26,5.26,0,0,0,.6-.15,4.15,4.15,0,0,0,.23.55c0,.05.14.08.24.13a1.58,1.58,0,0,1,.08-.37,1.6,1.6,0,0,1,.26-.27l.18.17c.13,0,.16-.13.07-.34h.37a3.36,3.36,0,0,0-.19.38.54.54,0,0,0,0,.21c0,.09-.1.13-.15.09s-.23,0-.39,0l.13.13-.17.17L74.92,1l0,.24h-.06L74.6.81,74.28,1a.76.76,0,0,1-.08.57c-.13-.09-.13-.09-.26,0h.27c-.11.06-.15.13-.08.23l.11.2h0l-.37,0a.23.23,0,0,0,0-.07.19.19,0,0,0,0-.07s-.07,0-.08,0c-.18.18-.18.19-.61.35L73,2c-.14.15-.28.28-.5.09,0,0-.13,0-.2,0l-.25,0c-.26-.08-.26-.08-.4.12-.24,0-.55.11-.72-.11l-.46.14c0-.24.17-.3.32-.39s.17.12.32,0a1.32,1.32,0,0,1,.47-.1c0-.11,0-.21-.25-.2a3.7,3.7,0,0,1-.46,0l.07.25-.15.07c-.1-.21-.17-.24-.39-.18l-.34.12.07.36a5.29,5.29,0,0,1-.54,0H68c-.07,0-.19,0-.13-.09l.27,0c0-.1,0-.15-.13-.15s-.17,0-.13.14-.18-.08-.3,0a1.43,1.43,0,0,1-1,0s-.11,0-.12,0-.32.08-.48.08H64.61l.27-.47L65,1.9l.06-.16-.62-.22c0,.17-.08.3-.13.43s-.09.23-.41.23H21.76l-.09-.56c-.29.17-.09.37-.21.54H13.09c0-.21.05-.41.08-.61s.05-.27.07-.41,0-.21-.26-.34a.33.33,0,0,0-.24.36c0,.33,0,.66,0,1H12.4a16.44,16.44,0,0,0-2.22.14,2.93,2.93,0,0,0-.84.18l-.15,0L8.85,2c-.22,0-.16.22-.33.23a1.71,1.71,0,0,1,.07.26c0,.14-.06.24-.25.31s-.65.23-1,.35l-.24-.22c0,.45-.42.56-.75.74-.19-.24.22-.45,0-.69-.34,0-.22.23-.3.36a.44.44,0,0,0,0,.5l-.42.29L5.5,4s-.06,0,0,.08c0,.19-.11.32-.28.46a6.23,6.23,0,0,0-2.28,4,7.89,7.89,0,0,0-.05.84V21.92c0,.55,0,1.11,0,1.66Q3.05,28,8.35,30a3.55,3.55,0,0,0,.54.21,16.66,16.66,0,0,0,3.17.4q3.78,0,7.57,0l2.92,0,.84,0a4.28,4.28,0,0,0,.2.43.39.39,0,0,0,.36.23c.21-.24-.1-.42-.14-.64H27.2l-.19.27.37-.07c.07.17-.05.46.41.41,0-.06,0-.14.1-.19s.35-.29.53-.43h.09c0,.16-.09.33.17.44l.19-.08,0-.39a10.6,10.6,0,0,1,1.28.08.62.62,0,0,0,.18,0,.66.66,0,0,1,.58.06.37.37,0,0,0,.31,0,1,1,0,0,1,.65-.07l-.13.12a2.36,2.36,0,0,0,.12.28l.15.3-.15.23a.87.87,0,0,0-.12-.2.83.83,0,0,0-.17-.11c-.2.12-.39.23-.56.35s-.07.12,0,.17c.26.14.26.18,0,.35a2,2,0,0,0-.12-.29,2.79,2.79,0,0,0-.17-.25l.17-.08-.37-.3-.09.37L30,31.33a5.2,5.2,0,0,1-.24.52c0,.07-.13.11-.23.18l.3,0c.09,0,.18,0,.18.1s-.07.3.22.35L30,32.1a.73.73,0,0,0,.19.07.2.2,0,0,0,.15-.05s0-.07-.06-.1ZM72,1.18l.22.25,0-.19a.29.29,0,0,0,.3,0L72.38,1a.26.26,0,0,0,.31,0c-.16-.12-.23,0-.31.05h-.26ZM28.52,31.75a.37.37,0,0,0,0-.18s-.08-.05-.12-.08-.1.09-.09.12.06.17.21.14l-.05.1c.19.06.23.23.38.34.12-.09.2-.17,0-.26Zm-2.18.44s.11,0,.11-.07-.09-.16-.25-.19l.05.2c-.22-.05-.1-.25-.23-.35-.17.1-.28.26-.2.32a1.27,1.27,0,0,0,.56.27ZM69.79,1l-.21.14.29.24L69.79,1c.1-.06.31,0,.3-.2s-.2-.17-.32-.24a.25.25,0,0,0-.33.09,3.13,3.13,0,0,0,.2.3S69.74,1,69.79,1Zm-54.47,0L15.53,1c-.06-.2-.1-.38-.16-.55a1.08,1.08,0,0,0-.12-.24.19.19,0,0,0-.3,0,.31.31,0,0,0,0,.13A1.75,1.75,0,0,0,15,.9c.05.17,0,.37.24.5C15.41,1.31,15.23,1.17,15.32,1.05ZM29.07,30.86c.15.24,0,.54.27.75-.22.21-.22.21,0,.4,0-.2.26-.17.41-.23,0-.08-.1-.15-.09-.22C29.67,31.22,29.34,31.05,29.07,30.86ZM2,11.48c.27-.41.41-.69.17-.92-.06.06-.15.11-.16.17C2,11,1.88,11.23,2,11.48ZM68.45.13c-.25.2-.29.32-.14.4a.24.24,0,0,0,.31-.06C68.75.34,68.71.25,68.45.13ZM21,32.18l.11,0,.38-.24c-.05-.18-.19-.23-.37-.23ZM68.77,2.11c.16-.2-.06-.29-.17-.39l-.34.1v.05l.25,0C68.54,2,68.52,2.13,68.77,2.11ZM68.54.73c.14.08.21.15.3.16a.45.45,0,0,0,.25-.07s0-.12,0-.15a.4.4,0,0,0-.22-.05A2.51,2.51,0,0,0,68.54.73ZM1.85,12H1.76a1.85,1.85,0,0,0-.19.37s.07.09.11.14.15-.07.16-.11A2.54,2.54,0,0,0,1.85,12ZM21.34,31c.1.15.07.35.38.33C21.69,31.09,21.67,31.08,21.34,31Zm-4.07.92c0-.22-.08-.3-.38-.35A.5.5,0,0,0,17.27,31.93ZM16.62,1.44c0-.06,0-.12,0-.17s-.09-.13-.13-.13-.13.09-.11.16S16.44,1.46,16.62,1.44Zm7.56,29.83c0,.12.1.22.27.18a.15.15,0,0,0,.07-.15C24.45,31.18,24.33,31.17,24.18,31.27ZM73.36,2V1.67l-.5.17ZM73.94,1c.2-.17.13-.31-.16-.38Zm-4.71.28.07-.06c-.06-.06-.1-.14-.17-.18a.23.23,0,0,0-.18,0s0,.11,0,.13A1.6,1.6,0,0,0,69.23,1.28ZM7.11,2.06c.25-.09.26-.12.12-.36A.25.25,0,0,0,7.11,2.06Zm10.28-.28-.16-.11s-.11.07-.11.11.07.07.11.11Zm-3,29.78.07-.07-.39-.24C14.21,31.37,14.2,31.55,14.44,31.56Zm9,.11,0,.06a1.24,1.24,0,0,1,.23.12c.11.09.17.08.24-.06Zm3.66-.4h.12c.06-.1.09-.2-.12-.35ZM1.27,9.08H1.16a1,1,0,0,0-.08.23s.06.06.09.1.09,0,.09-.07A1,1,0,0,0,1.27,9.08ZM69.94,1.84c-.18,0-.31-.08-.44,0C69.65,2,69.77,2,69.94,1.84Zm-49.2-.76C20.65,1,20.6,1,20.56,1s-.1.06-.15.09.07.08.11.08A.92.92,0,0,0,20.74,1.08Zm5.45,30L25.83,31l.17.27ZM70.6.26l-.31.15C70.54.54,70.54.54,70.6.26ZM11.73,1h-.09a.27.27,0,0,0,.09.35ZM31.38,31l.05,0,.21-.08s0-.08,0-.12-.12,0-.15,0A.44.44,0,0,0,31.38,31ZM7.6,1.7h.1c.09-.07.13-.14-.07-.24ZM24.79,32.63l.11,0-.13-.25C24.63,32.51,24.68,32.57,24.79,32.63ZM69,1.67l0,.09c.12,0,.2.13.44,0Zm3.56.05.07-.07-.23-.13C72.37,1.7,72.48,1.71,72.6,1.72Zm-47,29.86c0-.22,0-.22-.33-.15ZM70.65,1.37c-.18,0-.29,0-.33.1C70.47,1.54,70.55,1.5,70.65,1.37ZM69,1.44l-.06-.08-.2.07.09.11Zm4.29-.23.15.16s.11-.06.11-.09S73.43,1.18,73.27,1.21Zm-54,29.56c-.07,0-.12-.08-.15-.08s-.08,0-.12.08.07.08.11.09S19.21,30.81,19.28,30.77Zm7.4-.14c-.17.05-.21.11-.12.24C26.7,30.81,26.74,30.75,26.68,30.63ZM9.94,2.18l.2-.13C9.92,2,9.92,2,9.94,2.18ZM29.49,31c.2.05.2.05.3-.07Zm44-29.28c.14.13.22.07.29,0Zm-4-.29c0,.15,0,.15.23.18ZM20,31.71c-.06.13,0,.18.19.18ZM30.87,31c.05,0,.1-.07.09-.09s-.07-.06-.1-.09-.11.05-.1.08S30.82,31,30.87,31Zm-1.79.67c.15-.05.14-.12.05-.19s-.09,0-.1,0S29,31.63,29.08,31.68Zm-9.62,0,.08-.06-.25-.15-.06,0ZM67.31,1.21l0-.06c-.07-.07-.14-.1-.25,0Zm-38.79,30a.79.79,0,0,0-.13,0,.11.11,0,0,0-.07.08.17.17,0,0,0,.1.06S28.48,31.26,28.52,31.22ZM68.27,1.7h.08a.17.17,0,0,0,0-.1s-.07,0-.11-.07l0,0Zm2.31-.57.06-.07L70.39,1l0,0ZM72.7.4a.45.45,0,0,0,0,.13s0,0,.06.06.08,0,.08-.07S72.75.46,72.7.4ZM21.11,32.53c.12,0,.21,0,.18-.19ZM6.8,2.38a.46.46,0,0,0-.16-.06s-.06,0-.09,0,0,.06.08.07ZM6.36,30.69s.08-.06.08-.08a.06.06,0,0,0-.06-.05s-.07,0-.07,0S6.34,30.64,6.36,30.69Zm20,1.8-.11.07s.06.06.09.07.07,0,.11-.05Zm-8-1.42.08,0-.13-.13-.06,0ZM66.53,1.76l0,.06.16.08,0,0A.71.71,0,0,0,66.53,1.76ZM31.15,30.91l-.07.08s.05.05.06.05a.22.22,0,0,0,.09-.07Zm-11.57.25.07-.06L19.5,31l-.05,0Zm11,0,.11,0L30.65,31l-.07,0Zm-4.21.17h.11l0-.16h-.09Zm-.88.82.1-.1s0-.06-.06-.05-.1,0-.1,0S25.5,32.07,25.53,32.13Zm-5.64-.81-.08,0,.13.13.06,0Zm53.85-30c.05,0,.09.06.1,0a.71.71,0,0,0,.09-.07s-.06-.05-.08,0A.3.3,0,0,0,73.74,1.34ZM3.29,4.52l-.1,0s0,0,0,0,0,0,0,.06ZM68.44,1.13s0,0,0,0l.06.06s.05,0,0-.06S68.46,1.14,68.44,1.13ZM68,1.21s.07-.05.07-.07a.15.15,0,0,0-.06,0s-.07,0-.07,0S68,1.18,68,1.21ZM23,1.56l.06,0,0-.07,0,0S23,1.54,23,1.56ZM65.36.9l0,.06.15,0,0-.06Zm-38,31.26a.25.25,0,0,0,.09-.07.21.21,0,0,0,0-.07l-.08,0S27.36,32.11,27.37,32.16ZM71,.84l-.15,0s0,0,0,0l.1.06ZM24.84,32.16l-.08-.08s-.07,0-.07,0,0,.05,0,.06S24.78,32.17,24.84,32.16Zm-2.15-1-.05,0,.09.12.08,0ZM70.16.69s.07-.06.08-.09,0,0-.06,0-.07,0-.08.06S70.13.65,70.16.69Zm-3.43,1c.08-.1.12-.12.11-.13a.12.12,0,0,0-.08,0s-.07,0-.07,0S66.71,1.63,66.73,1.7Zm-58.47,1s.05-.07,0-.09l-.07,0s0,0,0,.07S8.23,2.68,8.26,2.71ZM69.79.27s0-.07.06-.1-.07,0-.08,0a.23.23,0,0,0-.07.07S69.75.24,69.79.27Z"/><path class="cls-5" d="M124.23,14.65a.39.39,0,0,1,.2.44l0,.43-.39-.07-.05.06a1.06,1.06,0,0,0,.23.19.4.4,0,0,1,.24.38c0,.61,0,1.22,0,1.82,0,.21,0,.41,0,.61V20.6l-.31,0,.13.19.16-.06v1.64l-.43,0,.29.16c.12.06.2.12.12.25s0,.12,0,.18c0,.24,0,.48,0,.72l-.41.09.37.19a6,6,0,0,1-.27,1.36c-.07.19-.14.37-.19.56a5.9,5.9,0,0,1-.94,1.94,10.65,10.65,0,0,1-2.68,2.58c-.39.25-.8.47-1.21.7l-.14-.2c-.07.38-.44.49-.75.63a.64.64,0,0,1-.11-.06c0-.12.21-.22.11-.41-.11.16-.17.28-.1.42a4.2,4.2,0,0,1-1.81.67c-.92.2-1.87.35-2.81.48a10.39,10.39,0,0,1-1.37.06H101.23a1.9,1.9,0,0,1-.34,0s0-.06,0-.1a2.28,2.28,0,0,0,.35-.17.2.2,0,0,0,0-.35.3.3,0,0,0-.34,0,.27.27,0,0,0-.14.34,1.77,1.77,0,0,0,.16.22,1.25,1.25,0,0,1-.81.07c-.07-.14.15-.3-.06-.42s-.13-.14-.3-.07c.19.16.1.32,0,.52H48a.87.87,0,0,1-.55-.11.37.37,0,0,0-.27,0,1,1,0,0,1-.79.13c-.43,0-.86,0-1.28,0H41.4l-.16,0,0-.18a.35.35,0,0,0-.47,0l.31-.6.23.15c0-.23-.22-.41,0-.57-.29-.05-.42,0-.49.23s-.2.55-.31.83a.37.37,0,0,1-.07.1c-.3-.05-.6-.23-.92,0,0-.2.11-.31.26-.27a.94.94,0,0,0,.38,0c.3,0,.3,0,.33-.33h-.26l0-.13h0c.11-.08.19-.16.1-.27a.83.83,0,0,0-.21.12.88.88,0,0,0-.12.15h0c-.14.07-.21.21-.41.22s-.12.09-.15.14-.17.27-.26.42h-.35l-.13-.22-.17.22-.17-.1c-.18.09-.38.21-.6,0a.67.67,0,0,1-.63.06c-.12-.18.13-.29.16-.45-.19,0-.23.11-.34.15h0l.07-.33H36.7c-.15-.14-.06-.3-.05-.45s.16-.3.1-.41,0-.29.1-.44a.78.78,0,0,0,.3.09c.06,0,.12-.1.18-.15a.51.51,0,0,1,.56-.05l-.27.08.2.34c-.19.05-.19-.05-.23-.11a.2.2,0,0,0-.26-.09c-.12,0-.12.12-.07.19s-.06.31-.16.46l-.05-.28c-.2.15-.33.28-.27.5l.28-.07.24.14.17-.31c.12.1.22.17.08.29a.87.87,0,0,0-.13.29l.55,0a4,4,0,0,0,.3-.32c0-.07,0-.16,0-.23s.07-.07.13-.12c.07.39-.1.65-.54.81l.12.31.37,0v-.44l.29.1.26-.17c0,.14.1.21.25.22s.09-.06.14-.09l-.4-.12c0-.07,0-.1.1-.1a.56.56,0,0,0,.52-.23c-.24,0-.33-.26-.63-.1l.54-1,.73.11,0-.08c.36,0,.72-.06,1.11,0l0,.5.45-.26c0,.14,0,.14.17.1l-.18-.09c.12-.24.34-.06.51-.08v.37c.37-.11.31-.37.45-.53l1.08,0c.22,0,.44,0,.65.06.05,0,.11,0,.14,0a2.24,2.24,0,0,1,1-.05c.36,0,.71,0,1.07,0H86.88a.81.81,0,0,1,.67.19.46.46,0,0,1,.42-.19c2,0,3.89,0,5.82,0,.09.07.17.17.27.18s.17-.09.33-.18c.75,0,1.59,0,2.43,0,.39,0,.78.08,1.17.11a.8.8,0,0,0,.31,0,2,2,0,0,1,.69-.1q1.65,0,3.3,0a7,7,0,0,0,1,0,.62.62,0,0,1,.56.2c.09-.2.27-.2.48-.2h3.38c.13,0,.28,0,.35.12s.2.05.28,0a.39.39,0,0,1,.28-.11c.66,0,1.31,0,2,0a23.3,23.3,0,0,0,3.73-.17,10.11,10.11,0,0,0,5.28-2.53,6.94,6.94,0,0,0,1.43-1.95,5.35,5.35,0,0,0,.53-2.55c0-.28,0-.56,0-.84a.86.86,0,0,1,.1-.28c-.15,0-.11-.12-.11-.21,0-.49,0-1,0-1.46,0-.27.06-.54.06-.8a2.78,2.78,0,0,0-.06-.58.25.25,0,0,1,.21-.31c-.21-.12-.21-.12-.21-.29,0-.4,0-.8,0-1.21,0-.14,0-.29,0-.44a.55.55,0,0,1,.16-.5c.11-.09.07-.12-.14-.17V16l.21,0a.57.57,0,0,0,0-.53l-.21.42c0-.11,0-.16,0-.2,0-.85,0-1.69,0-2.53a.64.64,0,0,1,.12-.34c0-.06.16-.1.24-.14l.07,0a2.43,2.43,0,0,0,0-.27.18.18,0,0,1,.07-.2c.07-.06.12-.17.09-.23s0-.24.15-.33a1.65,1.65,0,0,0,.49-1.08,1.88,1.88,0,0,1,.16-.56,1.05,1.05,0,0,1,.4-.49l.05.38h.06l.44-.68c.11-.18.24-.19.42,0l-.2.12v0l.27,0a5.73,5.73,0,0,1-.06,1.31.2.2,0,0,0,0,.11,1.55,1.55,0,0,1,0,.71c0,.39,0,.77-.1,1.15,0,0,0,.09,0,.1.2.12.15.29.15.44a1.4,1.4,0,0,1-.18.93.62.62,0,0,0-.1.35s.06.09.09.13ZM42,31.44l-.12.19.26-.06L42,31.44V31.2l-.27.19,0,.05Zm-3.07,1-.16-.15c-.06.15,0,.18.17.14v.25c.19-.08.25-.16.23-.32Zm.69-1.49c.25.27-.25.25-.24.44h.46l0,.27c.16-.2.27-.41.52-.51.08,0,.19.09.26.07a.23.23,0,0,0,.19-.25c-.2-.14-.28.14-.47.05s-.2.23-.41.11l.09-.2Zm59.25,1.33-.39-.32c-.15-.14-.37-.14-.42,0a.35.35,0,0,0,.07.27.25.25,0,0,0,.29.07.38.38,0,0,1,.33,0S98.85,32.27,98.88,32.26Zm24.47-22.18c-.06.1-.11.15-.11.19a2.33,2.33,0,0,1,.06.35c0,.12-.17.23-.16.34s-.06.29-.29.42c.42,0,.37-.35.62-.4,0-.11-.08-.21,0-.29A.8.8,0,0,0,123.35,10.08Zm.41,6.15c.3.09.09.29.21.39s.24,0,.19-.12,0-.27,0-.4a.52.52,0,0,0,0-.22C124,16,123.78,16.06,123.76,16.23Zm.58,5.4c-.24.16-.56.08-.62.34l.5.15ZM124,9.71l-.09,0c0,.08,0,.17,0,.23a1.07,1.07,0,0,0,.26.26.22.22,0,0,0,.16,0,.11.11,0,0,0,0-.12ZM95.86,32a.21.21,0,0,0,.23-.18.2.2,0,0,0-.18-.21.28.28,0,0,0-.28.18C95.62,31.91,95.74,32,95.86,32Zm-20.63-.59a.73.73,0,0,0,0-.61C75,31,75,31.13,75.23,31.44ZM101.79,31a1.06,1.06,0,0,0-.25-.12c-.13,0-.31.09-.28.17s.15.15.18.14A1.56,1.56,0,0,0,101.79,31Zm-3.11-.08a.82.82,0,0,0,.25.07.13.13,0,0,0,.17-.14c0-.09-.09-.13-.2-.12S98.68,30.73,98.68,30.89Zm23.59-12a.78.78,0,0,0,.2-.62A.61.61,0,0,0,122.27,18.88ZM122.9,12c.42-.08.48-.18.28-.44Zm.9,0-.08.06c.11.13.15.3.43.35,0-.06,0-.12,0-.14S123.92,12.1,123.8,12ZM100.64,30.59c-.06.07-.13.12-.14.17s.08.09.13.09.2,0,.18-.13S100.72,30.65,100.64,30.59Zm23.15-16.78.07.47C124.05,14,124.05,14,123.79,13.81Zm-.93-.34-.06.06.52.26C123.25,13.59,123,13.56,122.86,13.47Zm1.11,4.9.29-.06a2.45,2.45,0,0,0-.2-.18s-.09,0-.15,0Zm-1.36.8a.73.73,0,0,0,.61-.13A.87.87,0,0,0,122.61,19.17ZM100.07,31.76c.11.24.11.23.33.09Zm22.52-4.49c.23-.06.22-.06.16-.17a.38.38,0,0,1,0-.15h-.06Zm-28,4.41c0,.08-.12.13-.11.16s.1.07.15.11.13-.08.12-.1A.59.59,0,0,0,94.59,31.68Zm27.89-19.24c.15-.13.08-.25,0-.38C122.24,12.19,122.52,12.31,122.48,12.44Zm.67,9.15.1,0,.18-.44h-.07Zm-.92-2.46c-.19.05-.23.13-.24.41C122.21,19.45,122.09,19.28,122.23,19.13Zm0,5.67-.08,0-.1.42h.1ZM98,31.28c-.07,0-.11-.07-.15-.07s-.08.05-.12.08l.14.1Zm24.16-10c-.15,0-.22.09-.18.21a.12.12,0,0,0,.09,0c.15,0,.15-.12.12-.21Zm-17.4,9.79c.06-.07.12-.1.13-.15s-.07-.05-.11-.08-.1.06-.11.1S104.75,31,104.8,31.09Zm17.66-16.8c.12-.16.12-.16,0-.33Zm1.69,10.19-.28,0C124,24.63,124.08,24.64,124.15,24.48Zm-10.88,8.07a.94.94,0,0,0-.17-.11s-.1.05-.09.06a.41.41,0,0,0,.1.13Zm-69.18-.8.1.07.22-.25-.07,0ZM122,13.55h.1v-.28H122ZM42.31,31.79l0,.23.06,0,.21-.21Zm50-.88-.21-.12s-.07.06-.06.08a.14.14,0,0,0,.1.08Zm-50.54.94c-.12,0-.22.11-.15.24C41.8,32.05,41.79,32,41.77,31.85Zm81-17.19c.13-.24.13-.24,0-.34Zm.77,9.21V24h.23a.28.28,0,0,0,0-.1Zm-1.81-9.82h.12l0-.26h-.09ZM102,32.51l-.11-.09s-.08.06-.09.09,0,.05.06.08Zm.41-1.73-.27.14C102.36,31,102.4,30.92,102.45,30.78Zm-8.57,1.66-.15,0s-.06.05-.06.05a.13.13,0,0,0,.09.06S93.82,32.49,93.88,32.44Zm26.45-4.94h-.06l0,.17h.07Zm3.57-7c-.06,0-.09-.07-.13-.07s-.07,0-.1,0,0,.06.09.07S123.83,20.53,123.9,20.51Zm-77,11c.19-.07.19-.07.16-.23Zm-2.57.64-.06-.06c-.1,0-.18,0-.16.2Zm79.21-20.95-.11,0,.09.15.07,0ZM85.22,31.12s-.06-.05-.08-.05,0,0-.07,0l.08.07Zm-41.3,1.37c.12.09.2.18.31,0Zm57.79-1.06h.09v-.15h-.09A.75.75,0,0,0,101.71,31.43Zm-8.41.34s-.09.07-.09.09.05.07.08.08.09,0,.09-.06S93.34,31.82,93.3,31.77Zm-56.23.1,0,0,.21.16C37.28,31.9,37.14,31.91,37.07,31.87Zm64.31-.2s.09-.07.08-.1-.06-.05-.1-.05-.07,0-.07.07S101.34,31.63,101.38,31.67ZM120.52,28c-.17.14-.17.14-.12.29Zm2.85-12.77c-.22,0-.27.08-.16.21Zm.49,8.33v.06l.19,0v-.05Zm-.08-.4a.52.52,0,0,0-.12-.07l-.07,0,.08.07ZM102.67,31s-.06.05,0,.07,0,0,.07.05l.07-.07Zm-6,.25s-.08-.06-.1-.06l-.11,0s.05.06.07.06A.6.6,0,0,0,96.67,31.23ZM123,14.12c0-.19,0-.19-.2-.11Zm.83-1.41-.05,0,.07.06.06-.06ZM44.45,31.94l-.15,0s-.08,0-.07.05,0,0,.07.08Zm61,.12-.09,0,.06,0a.32.32,0,0,0,.09,0Zm-12.91.39-.1,0s0,0,0,0l0,0ZM124,24.27h-.09s0,0,0,0h.09S123.94,24.3,124,24.27Z"/><path class="cls-5" d="M87.26,2.07c.23-.25.61-.44.65-.79,0-.08.16-.15.26-.25L88.06.65l.16-.06c-.15-.23-.14-.26.15-.35L88.25.12a.45.45,0,0,1,.18-.07H99.22l.27.4c.19-.1.06-.26.18-.38l.3,0h12.47a14.65,14.65,0,0,1,2.74.32l1,.2c-.11.19-.21.37-.3.55,0,0,0,.06.07.1a.86.86,0,0,0,.45-.56c.24,0,.18.12.21.2a1.05,1.05,0,0,1,.06.24l.16,0-.09.36c.29-.15.3-.4.56-.53a.58.58,0,0,1-.09.39c-.08.14-.12.31-.26.4s0,.31-.17.41c0,.38,0,.38-.36.78-.64-.17-1.27-.34-1.9-.48a9.41,9.41,0,0,0-2.19-.22H92c-.11-.29.24-.64-.22-.88-.2.1-.27.22-.25.39s0,.31,0,.5c-.47,0-.9,0-1.33,0-.07,0-.14-.07-.24-.13a.57.57,0,0,1-.48.14c-.37,0-.74,0-1.11,0a3.24,3.24,0,0,1-.46-.07c-.12.11-.34.08-.56.06,0,0-.06-.07-.09-.11Zm6.68-.14H94V1.59l.27-.11a1.13,1.13,0,0,1-.17-.65l.38-.06a.65.65,0,0,0-.6-.18c-.17,0-.24.14-.23.34a2,2,0,0,0,0,.42C93.75,1.55,93.72,1.77,93.94,1.93ZM90.51.39a2.79,2.79,0,0,0-.1.39s0,.09.09.1.14,0,.14,0S90.76.54,90.51.39ZM95,.5h-.1a.47.47,0,0,0,0,.52s.09,0,.16,0ZM95.33,2l.07,0a.3.3,0,0,0,0-.13.38.38,0,0,0-.08-.17.24.24,0,0,0-.12,0,.35.35,0,0,0,0,.2S95.27,2,95.33,2Zm20.93-.54c-.24.12-.26.17-.2.37C116.21,1.72,116.34,1.62,116.26,1.45Zm-16.94.24c.05,0,.12-.08.12-.1s-.08-.07-.13-.11l-.13.11ZM89.14.29a.4.4,0,0,0,.45.11A.43.43,0,0,0,89.14.29Zm1.37,1.22c-.17.09-.17.19,0,.33ZM102.13.19c-.1-.09-.19-.11-.28,0s0,.06,0,.07A.18.18,0,0,0,102.13.19ZM89.74,1.59c.09-.07.09-.14,0-.19s-.11,0-.12,0S89.58,1.57,89.74,1.59ZM97.86.65c-.08-.12-.17-.12-.25-.06s0,.06,0,.1ZM91.41,1C91.34,1,91.3,1,91.27,1S91.2,1,91.16,1s.07.06.1.06S91.34,1.05,91.41,1Zm-2.71.48,0-.05-.19-.08,0,0ZM91.45.23l0-.06-.19,0,0,.06Z"/><path class="cls-5" d="M122.32,7.76a.46.46,0,0,1-.16.61c-.08.06-.09.19-.16.35a1.27,1.27,0,0,1,.68-.06s0,.06,0,.06a1,1,0,0,0-.58.75.63.63,0,0,1-.44.5.29.29,0,0,1,.08-.38.48.48,0,0,0,.21-.48l-.29.07s0-.06,0-.09a5.09,5.09,0,0,0-.54-2.24,12.25,12.25,0,0,0-.73-1.19c-.16-.22-.21-.43,0-.64l.24-.19V4.62l.22,0,.38-1.57a.27.27,0,0,1,.27.21l-.24.12.16.17.28-.17a8,8,0,0,1,1,1.15c-.13,0-.28,0-.2.22l.18-.23c.21.1.08.28.18.41H123s0,0,0,0,.08.26-.12.38,0,.26-.08.39a.72.72,0,0,1-.16.24s-.1.09-.1.13a2.75,2.75,0,0,0,0,.57s.1.11.17.13c.22,0,.22,0,.36.19l-.51.29c.09.29,0,.3-.3.38,0,0,0,0,0,0l0,0Zm-.79-4s0,.06,0,.07a.46.46,0,0,0-.09.68s.1,0,.15,0-.17.13-.1.26,0,.19-.15.25a.21.21,0,0,0-.12.14,2,2,0,0,0,0,.34h0l.13-.24c.2.09,0,.29.25.39a3.54,3.54,0,0,1,.1-.51,3.61,3.61,0,0,1,.23-.5l-.19-.2-.2.08a3.57,3.57,0,0,0,0-.8l.16.42c.13-.07.1-.18.1-.28S121.67,3.74,121.53,3.75Zm.5,3.17c.25-.67.25-.75,0-.93l-.25.7C121.77,6.83,121.86,6.89,122,6.92Zm-.9-2.24-.31.53A.39.39,0,0,0,121.13,4.68Zm1.18,2.81.32-.35C122.29,7.15,122.25,7.18,122.31,7.49Zm-1-.61.27.07c0-.15,0-.15-.2-.21Zm.85.16h.08l.06-.33C122.1,6.82,122.14,6.93,122.2,7Zm0,.63c-.19.08-.19.08-.11.22Zm.49-2.75c-.18,0-.18,0-.15.18Zm-.76-.82c.11-.09.13-.15,0-.25Zm-.15,4.23c.19,0,.21-.06.25-.13l0,0Zm.05-.31-.08,0a1.17,1.17,0,0,1,0,.11l.06,0A.61.61,0,0,1,121.79,8Z"/><path class="cls-5" d="M119.52,3.91l-.12.74-.49-.4A3.74,3.74,0,0,0,119,3.8c0-.08.1-.23-.15-.2.08-.16.17-.33.24-.49s0-.12-.06-.18-.09,0-.1,0-.12.12-.1.15a.43.43,0,0,1,0,.38s0,.09.08.13l-.14.53-.6-.38a6.33,6.33,0,0,0-.54-.36c-.2-.1-.44-.16-.68-.25,0-.1.06-.18.09-.26s.15-.31,0-.48a.24.24,0,0,1,0-.21c.19-.32.38-.64.59-1,0-.06.1-.09.2-.18l.05.39h0l.16-.26a9.5,9.5,0,0,1,1.28.63,1.57,1.57,0,0,1-.15.19c-.18.14-.19.13,0,.3s0,0,0,0,0,0,.07.05c.24-.11,0-.36.24-.48.17.09.19.17.12.37s-.15.39-.22.59-.11.32-.18.48,0,.17.13.22h0c-.1.17-.34.33-.07.53Zm-1.79-2.1.09,0,.1-.21-.1,0Z"/><path class="cls-5" d="M83.08,2a.78.78,0,0,0,.2-.83h0a.92.92,0,0,1,.57,0h0l-.15.22c.06,0,.16.09.19.16s-.06.13-.09.2-.06.15-.09.24c.58-.05.58-.05.75-.16,0-.15-.13-.17-.36-.13.21-.23.59-.39.29-.68.31-.08.51,0,.46.09s.12.22.18.37c.09-.07.21-.12.21-.17a.43.43,0,0,0-.07-.33.28.28,0,0,1,0-.34h.2L85.25.55l.3-.27L85,.22l0-.13c.18-.11.25,0,.38.07l.2-.09s.06,0,.06,0,0,.24,0,.35,0,.27-.2.35-.11.16-.07.19c.24.21.12.44.06.66,0,.06,0,.11-.06.16s0,.18.29.22c.23-.29,0-.6.07-.89s.1-.59.16-.94c.08.07.17.13.16.14s-.06.28-.08.43a1.75,1.75,0,0,1-.13.29.69.69,0,0,1,.13.57s0,0,0,.06l.1.18.39-.1c0-.06-.09-.15-.07-.16.25-.19.19-.44.25-.66a5.54,5.54,0,0,0,.12-.69c0-.17.1-.22.29-.22h.76l.15.38c-.51.24-.44.61-.43,1-.13,0-.39,0-.27.24l-.26.1a.37.37,0,0,1,.3.32h0a.6.6,0,0,1-.54.1c-.1,0-.19-.11-.3-.19l-.12.19H84.67V2C85,2,85,2,84.88,1.8c-.13.05-.26.09-.2.24a.21.21,0,0,0-.23,0,.81.81,0,0,1-.35.12h-1c-.16,0-.16,0-.35-.16h.36c.13.15.13.15.28,0Zm3.76-.65c-.07,0-.17-.07-.19,0s0,.13.15.11.08-.1,0-.15c.23,0,.23,0,.19-.16Zm.1-1,.08,0L87,.21l-.06,0Z"/><path class="cls-5" d="M119.41,3.59l.25-.26c-.18-.26.13-.45.24-.67a2.3,2.3,0,0,1,.29-.39l.28.17-.41.47.08,0,.44-.4c.12,0,.11.12.07.19s-.1.15-.13.23,0,.21.21.26l.22-.41c.11.13,0,.39-.31.7a2.16,2.16,0,0,1-.23,1.17V4.25l-.08,0a3.7,3.7,0,0,0-.33.63c0-.09-.08-.15-.07-.19a2.81,2.81,0,0,1,.26-.52.88.88,0,0,0,.06-.86.69.69,0,0,0-.34.51c0,.21,0,.42-.07.63a1.81,1.81,0,0,1-.19.4c-.19-.07-.11-.16-.08-.22s.19-.35.11-.56c0-.06,0-.14.08-.25l-.22.07c0-.12,0-.23-.14-.28Z"/><path class="cls-5" d="M122.75,9.76c-.07-.29.15-.5.36-.72l-.06,0-.52.18a2.89,2.89,0,0,0,.57-1.59c.1.08.06.1.14.37,0,.12-.22.25.07.36,0-.13.06-.24.08-.36a1.92,1.92,0,0,1,0-.41.9.9,0,0,1,.27-.33l-.06.37c0,.1-.19.18,0,.3s-.05.16-.11.23a.35.35,0,0,0,.06.58c.13.11,0,.2-.21.23l0,.34a1.54,1.54,0,0,0-.35.05c-.08,0-.12.13-.18.2l-.13.23Z"/><path class="cls-5" d="M122.74,9.75a3.23,3.23,0,0,1-.25.49.64.64,0,0,0-.14.47.84.84,0,0,1-.1.32,7.44,7.44,0,0,1-.38.66,2.06,2.06,0,0,1-.19.25c-.1-.24-.17-.41,0-.6a1.18,1.18,0,0,0,.15-.37l-.21.08c-.09-.05,0-.64.07-.8.19,0,.15.14.12.24s0,.19,0,.31a.37.37,0,0,0,.32-.35.64.64,0,0,1,.21-.36c.1-.12.17-.25.25-.36l.2,0Z"/><path class="cls-5" d="M34.38,31c-.09,0-.1.16-.26.12a.31.31,0,0,0-.14.1c-.11.16-.23.31-.15.5,0,0,0,.08-.07.12-.09-.23-.27-.47.09-.63,0-.2-.15-.19-.31-.23s-.24-.13-.42,0l.23-.32h.3l.06.24c.1,0,.41-.11.54-.27l.12.42Z"/><path class="cls-5" d="M83.84,1.24c0-.11,0-.19-.13-.25s-.26-.11-.19-.38A2.5,2.5,0,0,0,84,.47c.07,0,.06-.18.1-.32l-.33.12L83.83,0l.47.08c-.15.16,0,.34-.23.43.14.17-.14.3-.06.47s0,.19-.17.23Z"/><path class="cls-5" d="M31.72,32.44l-.15.13a.93.93,0,0,1-.1-.1c-.07-.1-.17-.21,0-.34l.32.12.14-.47.21,0-.18.52c.05.06.27.1.13.23S31.84,32.5,31.72,32.44Z"/><path class="cls-5" d="M74.24,2c.27,0,.54-.06.8-.06.1,0,.19.09.28.14l.32-.18.13.2c-.36.22-.65,0-1-.09a.41.41,0,0,1-.47.16L74.25,2Z"/><path class="cls-5" d="M124.23,8.29c.07.1.15.18.13.2s0,.32,0,.47a.39.39,0,0,1,0,.14L124,8.78c-.12,0,0,.3-.27.21C123.73,8.7,124,8.54,124.23,8.29Z"/><path class="cls-5" d="M33.56,31.77c-.18.2-.32.37-.08.57l-.18.18,0,0c0-.07,0-.13,0-.23-.16.08-.1.29-.34.24.06-.14.07-.31.19-.42S33.24,31.78,33.56,31.77Z"/><path class="cls-5" d="M76.22,1.84c.06-.08.09-.16.15-.18a.46.46,0,0,0,.35-.32c0-.06.11-.1.18-.15s0,.15,0,.2.11.19-.09.25S76.48,1.76,76.22,1.84Z"/><path class="cls-5" d="M32.71,31.18c-.17.07-.37.11-.24.29a1.87,1.87,0,0,1-.2.11l-.09-.5C32.35,31.14,32.57,30.94,32.71,31.18Z"/><path class="cls-5" d="M39.08,30.69c-.47,0-.33.32-.41.52-.19-.21.06-.4,0-.62l.35.05Z"/><path class="cls-5" d="M119.4,3.59c.18.05.16.16.14.28l0,0-.19.21C119.06,3.92,119.3,3.76,119.4,3.59Z"/><path class="cls-5" d="M123,6.38c-.22-.19-.08-.38,0-.59C123.15,6,123.16,6.07,123,6.38Z"/><path class="cls-5" d="M83.13,1.39h-.31l-.06-.14-.2.08,0-.2c.32-.06.45.12.65.21Z"/><path class="cls-5" d="M76.5.69c.23-.11.23-.11.24-.39.06,0,.14,0,.14.07a.86.86,0,0,1,0,.32C76.83.79,76.72.79,76.5.69Z"/><path class="cls-5" d="M38.24,31l-.27,0c.05-.07.08-.14.12-.2s.22-.16.46-.11C38.33,30.69,38.25,30.8,38.24,31Z"/><path class="cls-5" d="M30.31,32a.43.43,0,0,1,0-.44l.29,0a.63.63,0,0,1-.26.4Z"/><path class="cls-5" d="M76.22.58c0-.16.18-.34-.1-.46.13-.09.24,0,.25,0a1.56,1.56,0,0,1,0,.43h-.12Z"/><path class="cls-5" d="M27.78,30.93l-.24-.3.37-.06Z"/><path class="cls-5" d="M38,31.2c0,.14.21.29,0,.44C37.92,31.48,37.77,31.34,38,31.2Z"/><path class="cls-5" d="M37,32.38l-.27.25,0-.32c.16-.07.2.06.3.08Z"/><path class="cls-5" d="M34.33,32.34l-.09-.5h0l.13.49Z"/><path class="cls-5" d="M76.28,2c-.29.1-.35-.06-.48-.12C76,1.85,76.09,2,76.28,2Z"/><path class="cls-5" d="M75.67,1.39l-.14-.13.24-.15C75.93,1.25,75.71,1.28,75.67,1.39Z"/><path class="cls-5" d="M75.92,1.71l.13-.4.15.25Z"/><path class="cls-5" d="M122.33,7.76c.35,0,.39,0,.24.33-.09-.12,0-.29-.25-.33Z"/><path class="cls-5" d="M83,1c-.13,0-.31.08-.41-.08A.87.87,0,0,1,83,1Z"/><path class="cls-5" d="M123.33,5.41l.19.35C123.29,5.65,123.29,5.65,123.33,5.41Z"/><path class="cls-5" d="M32.78,30.59H33a.53.53,0,0,0-.1.12.61.61,0,0,0,0,.13h-.09Z"/><path class="cls-5" d="M32,30.83l.19-.26C32.25,30.75,32.25,30.75,32,30.83Z"/><path class="cls-5" d="M36.11,31.69l-.18.26C35.81,31.76,35.82,31.74,36.11,31.69Z"/><path class="cls-5" d="M83.28,1.2,83,1h.41l-.15.23Z"/><path class="cls-5" d="M76.23,1.17,76.5.83C76.47,1,76.55,1.14,76.23,1.17Z"/><path class="cls-5" d="M74.65,1.59l-.14.25c-.05-.08-.11-.12-.12-.17S74.51,1.57,74.65,1.59Z"/><path class="cls-5" d="M123.66,8.47l.08-.32C123.83,8.28,123.83,8.28,123.66,8.47Z"/><path class="cls-5" d="M35.74,30.86l.22-.24c.07.16-.08.2-.16.27Z"/><path class="cls-5" d="M35.61,30.77l-.13.21C35.38,30.86,35.45,30.8,35.61,30.77Z"/><path class="cls-5" d="M76.22.57c0,.19,0,.19-.36.27l.36-.26Z"/><path class="cls-5" d="M34.37,31l.3,0-.09.19-.2-.23Z"/><path class="cls-5" d="M36.37,31.24l-.34,0,0-.17Z"/><path class="cls-5" d="M35.8,32.48l-.17.18C35.62,32.57,35.59,32.47,35.8,32.48Z"/><path class="cls-5" d="M75.17,1.57c-.21-.09-.14-.16-.07-.24Z"/><path class="cls-5" d="M123.07,5.59,123,5.45l.09,0a.83.83,0,0,1,.07.13Z"/><path class="cls-5" d="M124.24,14.65c0-.14,0-.14.21-.1l-.22.1Z"/><path class="cls-5" d="M35,30.67l-.25.08c.06-.08.08-.11.12-.13s.08,0,.12,0Z"/><path class="cls-5" d="M73.06.11a.47.47,0,0,1,.09-.06.34.34,0,0,1,.16,0l-.22.05Z"/><path class="cls-5" d="M40.27,31.92c-.08,0-.15.22-.23,0h0c.07-.05.15-.13.23,0Z"/><path class="cls-5" d="M35.36,31.42a.59.59,0,0,1,0,.08s0,0,0,0l0-.1Z"/><path class="cls-5" d="M82.47,1.86l.07,0s0,0-.05,0l-.06-.05Z"/><path class="cls-5" d="M36.3,32.51v.17h0l0-.16Z"/><path class="cls-5" d="M15.32,1.05c-.09.12.09.26-.13.35C15,1.27,15,1.07,15,.9a1.75,1.75,0,0,1,0-.56.31.31,0,0,1,0-.13.19.19,0,0,1,.3,0,1.08,1.08,0,0,1,.12.24c.06.17.1.35.16.55Z"/><path class="cls-5" d="M29.07,30.86c.27.19.6.36.56.7,0,.07.05.14.09.22-.15.06-.38,0-.41.23-.19-.19-.19-.19,0-.4C29.07,31.4,29.22,31.1,29.07,30.86Z"/><path class="cls-5" d="M2,11.48c-.12-.25,0-.5,0-.75,0-.06.1-.11.16-.17C2.41,10.79,2.27,11.07,2,11.48Z"/><path class="cls-5" d="M69.8,1c-.06,0-.14,0-.16-.05a3.13,3.13,0,0,1-.2-.3A.25.25,0,0,1,69.77.6c.12.07.31.09.32.24s-.2.14-.3.2Z"/><path class="cls-5" d="M70.81,1.83,71,1.76l-.07-.25a3.7,3.7,0,0,0,.46,0c.21,0,.23.09.25.2a1.32,1.32,0,0,0-.47.1c-.15.11-.22,0-.32,0Z"/><path class="cls-5" d="M68.45.13c.26.12.3.21.17.34a.24.24,0,0,1-.31.06C68.16.45,68.2.33,68.45.13Z"/><path class="cls-5" d="M26.34,32.19l0,.18a1.27,1.27,0,0,1-.56-.27c-.08-.06,0-.22.2-.32.13.1,0,.3.23.35Z"/><path class="cls-5" d="M21,32.18l.12-.43c.18,0,.32.05.37.23l-.38.24Z"/><path class="cls-5" d="M68.77,2.11c-.25,0-.23-.11-.25-.21l-.25,0V1.82l.34-.1C68.71,1.82,68.93,1.91,68.77,2.11Z"/><path class="cls-5" d="M68.54.73a2.51,2.51,0,0,1,.34-.11.4.4,0,0,1,.22.05s0,.13,0,.15a.45.45,0,0,1-.25.07C68.75.88,68.68.81,68.54.73Z"/><path class="cls-5" d="M1.85,12a2.54,2.54,0,0,1,0,.39s-.1.08-.16.11-.13-.1-.11-.14A1.85,1.85,0,0,1,1.76,12Z"/><path class="cls-5" d="M28.52,31.75l.37.18c.17.09.09.17,0,.26-.15-.11-.19-.28-.38-.34l.05-.1Z"/><path class="cls-5" d="M21.34,31c.33.07.35.08.38.33C21.41,31.36,21.44,31.16,21.34,31Z"/><path class="cls-5" d="M17.27,31.93a.5.5,0,0,1-.38-.35C17.19,31.63,17.27,31.71,17.27,31.93Z"/><path class="cls-5" d="M16.62,1.44c-.18,0-.2-.06-.22-.14s0-.16.11-.16.11.08.13.13S16.63,1.38,16.62,1.44Z"/><path class="cls-5" d="M24.18,31.27c.15-.1.27-.09.34,0a.15.15,0,0,1-.07.15C24.28,31.49,24.22,31.39,24.18,31.27Z"/><path class="cls-5" d="M73.36,2l-.5-.11.5-.17Z"/><path class="cls-5" d="M73.94,1,73.78.62C74.07.69,74.14.83,73.94,1Z"/><path class="cls-5" d="M69.23,1.28A1.6,1.6,0,0,1,69,1.2s0-.11,0-.13a.23.23,0,0,1,.18,0c.07,0,.11.12.17.18Z"/><path class="cls-5" d="M7.11,2.06a.25.25,0,0,1,.12-.36C7.37,1.94,7.36,2,7.11,2.06Z"/><path class="cls-5" d="M17.39,1.78l-.16.11s-.11-.08-.11-.11.07-.08.11-.11Z"/><path class="cls-5" d="M14.44,31.56c-.24,0-.23-.19-.32-.31l.39.24Z"/><path class="cls-5" d="M23.45,31.67l.45.12c-.07.14-.13.15-.24.06a1.24,1.24,0,0,0-.23-.12Z"/><path class="cls-5" d="M27.11,31.27v-.34c.21.15.18.25.12.35Z"/><path class="cls-5" d="M1.27,9.08a1,1,0,0,1,0,.25s-.06.05-.09.07-.1-.07-.09-.1a1,1,0,0,1,.08-.23Z"/><path class="cls-5" d="M69.94,1.84c-.17.15-.29.18-.44,0C69.63,1.76,69.76,1.8,69.94,1.84Z"/><path class="cls-5" d="M72.37,1l.17.21a.29.29,0,0,1-.3,0h0L72.12,1h.25Z"/><path class="cls-5" d="M20.74,1.08a.92.92,0,0,1-.22.06s-.07,0-.11-.08.1-.09.15-.09S20.65,1,20.74,1.08Z"/><path class="cls-5" d="M28.53,31.75c-.15,0-.2-.05-.21-.14s.06-.08.09-.12.11.05.12.08a.37.37,0,0,1,0,.18Z"/><path class="cls-5" d="M69.79,1l.08.38-.29-.24L69.79,1Z"/><path class="cls-5" d="M30,32.1l.22.35c-.29-.05-.27-.2-.22-.35Z"/><path class="cls-5" d="M26.19,31l-.19.21L25.83,31Z"/><path class="cls-5" d="M70.6.26c-.06.28-.06.28-.31.15Z"/><path class="cls-5" d="M11.73,1v.35A.27.27,0,0,1,11.64,1Z"/><path class="cls-5" d="M31.38,31a.44.44,0,0,1,.13-.14s.1,0,.15,0,0,.1,0,.12l-.21.08Z"/><path class="cls-5" d="M7.6,1.7l0-.24c.2.1.16.17.07.24Z"/><path class="cls-5" d="M26.34,32.19l-.09-.06-.05-.2c.16,0,.23.1.25.19S26.38,32.17,26.34,32.19Z"/><path class="cls-5" d="M24.79,32.63c-.11-.06-.16-.12,0-.28l.13.25Z"/><path class="cls-5" d="M67.83,2.1c0-.09,0-.15.13-.14s.17,0,.13.15l-.27,0Z"/><path class="cls-5" d="M69,1.67l.4.12c-.24.1-.32,0-.44,0Z"/><path class="cls-5" d="M72.6,1.72c-.12,0-.23,0-.16-.2l.23.13Z"/><path class="cls-5" d="M25.55,31.58l-.33-.15C25.51,31.36,25.51,31.36,25.55,31.58Z"/><path class="cls-5" d="M70.65,1.37c-.1.13-.18.17-.33.1C70.36,1.33,70.47,1.33,70.65,1.37Z"/><path class="cls-5" d="M69,1.44l-.17.1-.09-.11.2-.07Z"/><path class="cls-5" d="M73.27,1.21c.16,0,.25,0,.26.07s-.07.06-.11.09Z"/><path class="cls-5" d="M19.28,30.77c-.07,0-.12.09-.16.09S19,30.8,19,30.77s.07-.07.12-.08S19.21,30.74,19.28,30.77Z"/><path class="cls-5" d="M26.68,30.63c.06.12,0,.18-.12.24C26.47,30.74,26.51,30.68,26.68,30.63Z"/><path class="cls-5" d="M9.94,2.18c0-.18,0-.18.2-.13Z"/><path class="cls-5" d="M29.49,31l.3-.07C29.69,31,29.69,31,29.49,31Z"/><path class="cls-5" d="M73.49,1.67h.29C73.71,1.74,73.63,1.8,73.49,1.67Z"/><path class="cls-5" d="M72.38,1.05c.08-.08.15-.17.31-.05a.26.26,0,0,1-.31,0Z"/><path class="cls-5" d="M69.48,1.38l.23.18C69.52,1.53,69.52,1.53,69.48,1.38Z"/><path class="cls-5" d="M20,31.71l.19.18C20,31.89,20,31.84,20,31.71Z"/><path class="cls-5" d="M30.87,31c-.05,0-.11-.07-.11-.1s.06-.06.1-.08.08.05.1.09S30.92,31,30.87,31Z"/><path class="cls-5" d="M29.08,31.68c-.12-.05-.15-.12,0-.19s.08,0,.1,0S29.23,31.63,29.08,31.68Z"/><path class="cls-5" d="M19.46,31.66l-.23-.17.06,0,.25.15Z"/><path class="cls-5" d="M72.12,1l.13.21L72,1.18Z"/><path class="cls-5" d="M67.31,1.21l-.23-.05c.11-.11.18-.08.25,0Z"/><path class="cls-5" d="M72,1.18l.26.07h0l0,.19Z"/><path class="cls-5" d="M28.52,31.22s-.07.08-.1.09a.17.17,0,0,1-.1-.06.11.11,0,0,1,.07-.08A.79.79,0,0,1,28.52,31.22Z"/><path class="cls-5" d="M68.27,1.7l-.08-.15,0,0s.09,0,.11.07a.17.17,0,0,1,0,.1Z"/><path class="cls-5" d="M70.58,1.13,70.36,1l0,0,.25.07Z"/><path class="cls-5" d="M72.7.4c0,.06.09.09.09.12s-.05,0-.08.07,0,0-.06-.06A.45.45,0,0,1,72.7.4Z"/><path class="cls-5" d="M21.11,32.53l.18-.19C21.32,32.5,21.23,32.52,21.11,32.53Z"/><path class="cls-5" d="M6.8,2.38l-.17,0s0,0-.08-.07.06,0,.09,0A.46.46,0,0,1,6.8,2.38Z"/><path class="cls-5" d="M6.36,30.69c0-.05-.05-.08-.05-.11s.05,0,.07,0a.06.06,0,0,1,.06.05S6.4,30.65,6.36,30.69Z"/><path class="cls-5" d="M26.35,32.49l.09.09s-.07.05-.11.05-.06-.05-.09-.07Z"/><path class="cls-5" d="M18.3,31.07l-.11-.14.06,0,.13.13Z"/><path class="cls-5" d="M66.53,1.76a.71.71,0,0,1,.14.1l0,0-.16-.08Z"/><path class="cls-5" d="M31.15,30.91l.08.06a.22.22,0,0,1-.09.07s-.07,0-.06-.05Z"/><path class="cls-5" d="M19.58,31.16,19.45,31l.05,0,.15.09Z"/><path class="cls-5" d="M30.62,31.14l0-.15.07,0,.08.15Z"/><path class="cls-5" d="M26.41,31.31l0-.16h.09l0,.16Z"/><path class="cls-5" d="M74.21,1.56h-.27c.13-.09.13-.09.26,0Z"/><path class="cls-5" d="M25.53,32.13c0-.06-.07-.09-.06-.12s.06,0,.1,0,.07,0,.06.05Z"/><path class="cls-5" d="M19.89,31.32l.11.13-.06,0-.13-.13Z"/><path class="cls-5" d="M73.74,1.34a.3.3,0,0,1,.11-.06s.05,0,.08,0a.71.71,0,0,1-.09.07S73.79,1.37,73.74,1.34Z"/><path class="cls-5" d="M3.29,4.52l-.08.06s0,0,0-.06,0,0,0,0Z"/><path class="cls-5" d="M68.44,1.13s.06,0,.06,0,0,0,0,.06l-.06-.06S68.42,1.15,68.44,1.13Z"/><path class="cls-5" d="M68,1.21s-.07-.05-.06-.07,0,0,.07,0a.15.15,0,0,1,.06,0S68,1.18,68,1.21Z"/><path class="cls-5" d="M23,1.56s0,0,.06-.05l0,0,0,.07Z"/><path class="cls-5" d="M65.36.9l.16,0,0,.06-.15,0Z"/><path class="cls-5" d="M27.37,32.16s0-.09,0-.12l.08,0a.21.21,0,0,1,0,.07A.25.25,0,0,1,27.37,32.16Z"/><path class="cls-5" d="M71,.84l-.09.07-.1-.06s0,0,0,0Z"/><path class="cls-5" d="M24.84,32.16c-.06,0-.1,0-.12,0s0,0,0-.06,0,0,.07,0Z"/><path class="cls-5" d="M22.69,31.16l.12.11-.08,0-.09-.12Z"/><path class="cls-5" d="M70.16.69S70.09.62,70.1.61s.05,0,.08-.06.07,0,.06,0S70.2.65,70.16.69Z"/><path class="cls-5" d="M66.73,1.7c0-.07,0-.1,0-.13s0,0,.07,0a.12.12,0,0,1,.08,0S66.81,1.6,66.73,1.7Z"/><path class="cls-5" d="M8.26,2.71s-.06,0-.06-.06,0,0,0-.07l.07,0S8.28,2.67,8.26,2.71Z"/><path class="cls-5" d="M69.79.27s-.1-.05-.09-.06a.23.23,0,0,1,.07-.07s.08,0,.08,0S69.81.23,69.79.27Z"/><path class="cls-5" d="M39.63,30.93l.45,0-.09.2c.21.12.24-.19.41-.11s.27-.19.47-.05a.23.23,0,0,1-.19.25c-.07,0-.18,0-.26-.07-.25.1-.36.31-.52.51l0-.27h-.46C39.38,31.18,39.88,31.2,39.63,30.93Z"/><path class="cls-5" d="M98.88,32.26s-.09.05-.12,0a.38.38,0,0,0-.33,0,.25.25,0,0,1-.29-.07.35.35,0,0,1-.07-.27c.05-.16.27-.16.42,0Z"/><path class="cls-5" d="M100.87,32.62a1.77,1.77,0,0,1-.16-.22.27.27,0,0,1,.14-.34.3.3,0,0,1,.34,0,.2.2,0,0,1,0,.35,2.28,2.28,0,0,1-.35.17Z"/><path class="cls-5" d="M123.35,10.08a.8.8,0,0,1,.07.61c0,.08,0,.18,0,.29-.25,0-.2.37-.62.4.23-.13.31-.24.29-.42s.14-.22.16-.34a2.33,2.33,0,0,0-.06-.35S123.29,10.18,123.35,10.08Z"/><path class="cls-5" d="M123.76,16.23c0-.17.24-.24.46-.35a.52.52,0,0,1,0,.22c0,.13-.12.25,0,.4s-.08.12-.19.12S124.06,16.32,123.76,16.23Z"/><path class="cls-5" d="M124.34,21.63l-.12.49-.5-.15C123.78,21.71,124.1,21.79,124.34,21.63Z"/><path class="cls-5" d="M124,9.71l.37.39a.11.11,0,0,1,0,.12.22.22,0,0,1-.16,0,1.07,1.07,0,0,1-.26-.26c0-.06,0-.15,0-.23Z"/><path class="cls-5" d="M95.86,32c-.12,0-.24-.12-.23-.21a.28.28,0,0,1,.28-.18.2.2,0,0,1,.18.21A.21.21,0,0,1,95.86,32Z"/><path class="cls-5" d="M75.23,31.44c-.22-.31-.2-.46,0-.61A.73.73,0,0,1,75.23,31.44Z"/><path class="cls-5" d="M101.79,31a1.56,1.56,0,0,1-.35.19s-.15-.08-.18-.14.15-.19.28-.17A1.06,1.06,0,0,1,101.79,31Z"/><path class="cls-5" d="M98.68,30.89c0-.16.11-.18.22-.19s.19,0,.2.12a.13.13,0,0,1-.17.14A.82.82,0,0,1,98.68,30.89Z"/><path class="cls-5" d="M122.27,18.88a.61.61,0,0,1,.2-.62A.78.78,0,0,1,122.27,18.88Z"/><path class="cls-5" d="M122.9,12l.28-.44C123.38,11.81,123.32,11.91,122.9,12Z"/><path class="cls-5" d="M123.8,12c.12.09.25.17.37.27s0,.08,0,.14c-.28-.05-.32-.22-.43-.35Z"/><path class="cls-5" d="M100.64,30.59c.08.06.16.09.17.13s-.06.15-.18.13-.13-.06-.13-.09S100.58,30.66,100.64,30.59Z"/><path class="cls-5" d="M123.79,13.81c.26.17.26.17.07.47Z"/><path class="cls-5" d="M122.86,13.47c.17.09.39.12.46.32l-.52-.26Z"/><path class="cls-5" d="M124,18.37l-.06-.22c.06,0,.13,0,.15,0a2.45,2.45,0,0,1,.2.18Z"/><path class="cls-5" d="M122.61,19.17a.87.87,0,0,1,.61-.13A.73.73,0,0,1,122.61,19.17Z"/><path class="cls-5" d="M100.07,31.76l.33.09C100.18,32,100.18,32,100.07,31.76Z"/><path class="cls-5" d="M122.59,27.27l.09-.32h.06a.38.38,0,0,0,0,.15C122.81,27.21,122.82,27.21,122.59,27.27Z"/><path class="cls-5" d="M38.94,32.42l.24-.08c0,.16,0,.24-.23.32v-.25Z"/><path class="cls-5" d="M94.59,31.68a.59.59,0,0,1,.16.17s-.07.07-.12.1-.13-.07-.15-.11S94.54,31.76,94.59,31.68Z"/><path class="cls-5" d="M122.48,12.44c0-.13-.24-.25,0-.38C122.56,12.19,122.63,12.31,122.48,12.44Z"/><path class="cls-5" d="M123.15,21.59l.21-.42h.07l-.18.44Z"/><path class="cls-5" d="M122.23,19.13c-.14.15,0,.32-.24.41C122,19.26,122,19.18,122.23,19.13Z"/><path class="cls-5" d="M40.26,31.93c-.08-.13-.16-.05-.23,0a.88.88,0,0,1,.12-.15.83.83,0,0,1,.21-.12C40.45,31.77,40.37,31.85,40.26,31.93Z"/><path class="cls-5" d="M122.24,24.8l-.08.4h-.1l.1-.42Z"/><path class="cls-5" d="M38.93,32l.4.12s-.1.1-.14.09-.26-.08-.25-.22Z"/><path class="cls-5" d="M98,31.28l-.13.11-.14-.1s.07-.07.12-.08S98,31.25,98,31.28Z"/><path class="cls-5" d="M122.2,21.3l0,0c0,.09,0,.18-.12.21a.12.12,0,0,1-.09,0C122,21.39,122.05,21.32,122.2,21.3Z"/><path class="cls-5" d="M104.8,31.09c0-.06-.1-.1-.09-.13s.07-.07.11-.1.12.06.11.08S104.86,31,104.8,31.09Z"/><path class="cls-5" d="M122.46,14.29V14C122.58,14.13,122.58,14.13,122.46,14.29Z"/><path class="cls-5" d="M42,31.44h-.23l0-.05L42,31.2v.24Z"/><path class="cls-5" d="M124.15,24.48c-.07.16-.15.15-.28,0Z"/><path class="cls-5" d="M113.27,32.55l-.16.08a.41.41,0,0,1-.1-.13s.07-.07.09-.06A.94.94,0,0,1,113.27,32.55Z"/><path class="cls-5" d="M118.11,31.51c-.07-.14,0-.26.1-.42.1.19-.1.29-.11.41Z"/><path class="cls-5" d="M44.09,31.75l.25-.22.07,0-.22.25Z"/><path class="cls-5" d="M122,13.55l0-.27h.07v.28Z"/><path class="cls-5" d="M42.31,31.79l.24,0-.21.21-.06,0Z"/><path class="cls-5" d="M92.31,30.91l-.17,0a.14.14,0,0,1-.1-.08s0-.06.06-.08Z"/><path class="cls-5" d="M41.77,31.85c0,.1,0,.2-.15.24C41.55,32,41.65,31.9,41.77,31.85Z"/><path class="cls-5" d="M122.82,14.66v-.34C123,14.42,123,14.42,122.82,14.66Z"/><path class="cls-5" d="M123.59,23.87h.22a.28.28,0,0,1,0,.1h-.23Z"/><path class="cls-5" d="M121.78,14.05l.07-.25h.09l0,.26Z"/><path class="cls-5" d="M102,32.51l-.14.08s-.07-.06-.06-.08.06-.06.09-.09Z"/><path class="cls-5" d="M102.45,30.78c0,.14-.09.2-.27.14Z"/><path class="cls-5" d="M93.88,32.44c-.06.05-.09.08-.12.08a.13.13,0,0,1-.09-.06s0-.05.06-.05Z"/><path class="cls-5" d="M120.33,27.5l0,.17h-.07l0-.17Z"/><path class="cls-5" d="M123.9,20.51c-.07,0-.11,0-.14,0s-.06,0-.09-.07.07-.05.1,0S123.84,20.47,123.9,20.51Z"/><path class="cls-5" d="M46.94,31.55l.16-.23C47.13,31.48,47.13,31.48,46.94,31.55Z"/><path class="cls-5" d="M44.37,32.19l-.22.14c0-.16.06-.19.16-.2Z"/><path class="cls-5" d="M123.58,11.24l0,.15-.07,0-.09-.15Z"/><path class="cls-5" d="M85.22,31.12l-.07.06-.08-.07s0-.05.07,0S85.19,31.1,85.22,31.12Z"/><path class="cls-5" d="M43.92,32.49h.31C44.12,32.67,44,32.58,43.92,32.49Z"/><path class="cls-5" d="M101.71,31.43a.75.75,0,0,1,0-.15h.09v.15Z"/><path class="cls-5" d="M42,31.44l.14.13-.26.06.12-.19Z"/><path class="cls-5" d="M93.3,31.77c0,.05.09.08.08.11s-.06.06-.09.06-.08-.05-.08-.08S93.26,31.81,93.3,31.77Z"/><path class="cls-5" d="M37.07,31.87c.07,0,.21,0,.16.2L37,31.91Z"/><path class="cls-5" d="M101.38,31.67s-.09-.06-.09-.08,0-.07.07-.07.1,0,.1.05S101.42,31.63,101.38,31.67Z"/><path class="cls-5" d="M120.52,28l-.12.29C120.35,28.13,120.35,28.13,120.52,28Z"/><path class="cls-5" d="M123.37,15.22l-.16.21C123.1,15.3,123.15,15.26,123.37,15.22Z"/><path class="cls-5" d="M123.86,23.55h.19v.05l-.19,0Z"/><path class="cls-5" d="M41.75,30.85l.18.09c-.17,0-.17,0-.17-.1Z"/><path class="cls-5" d="M123.78,23.15l-.11,0-.08-.07.07,0A.52.52,0,0,1,123.78,23.15Z"/><path class="cls-5" d="M102.67,31l.09.05-.07.07s-.07,0-.07-.05S102.65,31,102.67,31Z"/><path class="cls-5" d="M96.67,31.23a.6.6,0,0,1-.14.05s0,0-.07-.06l.11,0S96.62,31.2,96.67,31.23Z"/><path class="cls-5" d="M123,14.12l-.2-.11C122.91,13.93,122.91,13.93,123,14.12Z"/><path class="cls-5" d="M123.79,12.71l.08,0-.06.06-.07-.06Z"/><path class="cls-5" d="M44.45,31.94l-.15.1s-.06-.05-.07-.08,0-.05.07-.05Z"/><path class="cls-5" d="M105.43,32.06l.06.06a.32.32,0,0,1-.09,0l-.06,0Z"/><path class="cls-5" d="M39,32.41c-.15,0-.23,0-.17-.14l.16.15Z"/><path class="cls-5" d="M92.52,32.45l-.08,0,0,0s0,0,0,0Z"/><path class="cls-5" d="M124,24.27s0,.05,0,.05h-.09s0,0,0,0Z"/><path class="cls-5" d="M93.94,1.93c-.22-.16-.19-.38-.23-.58a2,2,0,0,1,0-.42c0-.2.06-.3.23-.34a.65.65,0,0,1,.6.18l-.38.06a1.13,1.13,0,0,0,.17.65L94,1.59v.33Z"/><path class="cls-5" d="M90.51.39c.25.15.15.3.13.45s-.1.05-.14,0-.1-.06-.09-.1A2.79,2.79,0,0,1,90.51.39Z"/><path class="cls-5" d="M95,.5l.1.55c-.07,0-.15,0-.16,0a.47.47,0,0,1,0-.52Z"/><path class="cls-5" d="M95.33,2c-.06,0-.14-.07-.15-.12a.35.35,0,0,1,0-.2.24.24,0,0,1,.12,0,.38.38,0,0,1,.08.17.3.3,0,0,1,0,.13Z"/><path class="cls-5" d="M116.26,1.45c.08.17-.05.27-.2.37C116,1.62,116,1.57,116.26,1.45Z"/><path class="cls-5" d="M99.32,1.69l-.14-.1.13-.11s.11.07.13.11S99.37,1.65,99.32,1.69Z"/><path class="cls-5" d="M89.14.29a.43.43,0,0,1,.45.11A.4.4,0,0,1,89.14.29Z"/><path class="cls-5" d="M90.51,1.51v.33C90.34,1.7,90.34,1.6,90.51,1.51Z"/><path class="cls-5" d="M102.13.19a.18.18,0,0,1-.27,0s0-.06,0-.07S102,.1,102.13.19Z"/><path class="cls-5" d="M89.74,1.59c-.16,0-.17-.09-.13-.17s.1,0,.12,0S89.83,1.52,89.74,1.59Z"/><path class="cls-5" d="M97.86.65l-.24,0s0-.09,0-.1S97.78.53,97.86.65Z"/><path class="cls-5" d="M91.41,1c-.07,0-.1.08-.15.09s-.07,0-.1-.06.07-.07.11-.08S91.34,1,91.41,1Z"/><path class="cls-5" d="M88.7,1.49l-.16-.09,0,0,.19.08Z"/><path class="cls-5" d="M91.45.23l-.18,0,0-.06.19,0Z"/><path class="cls-5" d="M121.55,4.55l.2-.08.19.2a3.61,3.61,0,0,0-.23.5,3.54,3.54,0,0,0-.1.51c-.26-.1,0-.3-.25-.39l-.13.24h0a2,2,0,0,1,0-.34.21.21,0,0,1,.12-.14c.16-.06.2-.16.15-.25s0-.18.1-.26Z"/><path class="cls-5" d="M122,6.92c-.17,0-.26-.09-.21-.23l.25-.7C122.28,6.17,122.28,6.25,122,6.92Z"/><path class="cls-5" d="M121.53,3.75a3.57,3.57,0,0,1,0,.8h0s-.12,0-.15,0a.46.46,0,0,1,.09-.68s0,0,0-.07Z"/><path class="cls-5" d="M121.13,4.68a.39.39,0,0,1-.31.53Z"/><path class="cls-5" d="M122.31,7.49c-.06-.31,0-.34.32-.35Z"/><path class="cls-5" d="M121.53,3.75c.14,0,.27,0,.26.14s0,.21-.1.28l-.16-.42Z"/><path class="cls-5" d="M121.35,6.88l.07-.14c.2.06.2.06.2.21Z"/><path class="cls-5" d="M122.2,7c-.06-.11-.1-.22.14-.32l-.06.33Z"/><path class="cls-5" d="M122.16,7.67l-.11.22C122,7.75,122,7.75,122.16,7.67Z"/><path class="cls-5" d="M122.65,4.92l-.15.18C122.47,5,122.47,5,122.65,4.92Z"/><path class="cls-5" d="M121.89,4.1l0-.25C122,4,122,4,121.89,4.1Z"/><path class="cls-5" d="M122.67,4.54l-.18.23c-.08-.22.07-.21.2-.22Z"/><path class="cls-5" d="M121.74,8.33l.2-.18,0,0C122,8.27,121.93,8.36,121.74,8.33Z"/><path class="cls-5" d="M121.79,8a.61.61,0,0,0-.07.1l-.06,0a1.17,1.17,0,0,0,0-.11Z"/><path class="cls-5" d="M118.89,3.59s-.1-.1-.08-.13a.43.43,0,0,0,0-.38s.06-.1.1-.15.1,0,.1,0,.08.13.06.18-.16.33-.24.49Z"/><path class="cls-5" d="M117.73,1.81l.09-.22.1,0-.1.21Z"/><path class="cls-5" d="M84.68,2c-.06-.15.07-.19.2-.24C85,2,85,2,84.67,2Z"/><path class="cls-5" d="M83.08,2l.29,0c-.15.17-.15.17-.28,0Z"/><path class="cls-5" d="M86.84,1.38c0,.05.08.12,0,.15s-.17,0-.15-.11.12,0,.19,0Z"/><path class="cls-5" d="M86.94.36l0-.13.06,0L87,.34Z"/><path class="cls-5" d="M86.84,1.38,87,1.22c0,.16,0,.16-.19.16Z"/></g></g></svg>